<svg xmlns="http://www.w3.org/2000/svg" viewBox="0 0 5505.41 1062.37" style="height:28px;width:auto;display:block;filter:brightness(0) invert(1);" ><defs><style>.cls-1f{fill:#215845;}.cls-1f,.cls-2f{fill-rule:evenodd;}.cls-3f{fill:#282828;}.cls-2f{fill:#29a587;}</style></defs><g><path class="cls-3f" d="M444.18,671.15h-223.31l-34.89,102.32H-.01L247.46,143.47h169.66l252.9,630h-191.12l-34.71-102.32ZM332.18,340.11l-69.03,195.22h138.68l-69.65-195.22Z"></path><path class="cls-3f" d="M697.89,529.76V143.47h177.38v383.05c0,61.58,39.68,101.37,97.64,101.37s97.63-39.79,97.63-101.37V143.47h177.38v386.29c0,155-114.41,259.64-275.01,259.64s-275.02-104.64-275.02-259.64Z"></path><path class="cls-3f" d="M1943.56,457.96c0,183.84-135,315.51-325.22,315.51h-254.98V143.47h254.98c190.75,0,325.22,130.39,325.22,314.48ZM1765.63,457.96c0-93.46-62.18-155.54-155.47-155.54h-72.47v312.11h72.47c93.29,0,155.47-63.63,155.47-156.57Z"></path><path class="cls-3f" d="M2386.37,671.15h-223.31l-34.89,102.32h-185.99l247.47-630h169.66l252.9,630h-191.12l-34.71-102.32ZM2274.37,340.11l-69.03,195.22h138.68l-69.65-195.22Z"></path><path class="cls-3f" d="M3174.48,371.09c0,132.11-99.49,228.38-233.4,228.38h-94.27v174h-173.95V143.47h268.23c133.91,0,233.4,95.51,233.4,227.62ZM2996.07,371.47c0-44.78-30.11-76.45-75.8-76.45h-73.47v152.89h73.47c45.68,0,75.8-31.67,75.8-76.45Z"></path><path class="cls-3f" d="M3725.79,299.75h-171.13v473.72h-174.32v-473.72h-171.14v-156.27h516.6v156.27Z"></path><path class="cls-3f" d="M3803.24,143.47h175.86v630h-175.86V143.47Z"></path><path class="cls-3f" d="M5444.32,143.47v630h-143.54l-250.28-341.89v341.89h-168.19V143.47h151.91l241.91,330.52V143.47h168.19Z"></path><path class="cls-2f" d="M4423.96,110.97c-190.51,0-344.97,154.46-344.97,344.97s154.46,344.99,344.97,344.99,344.99-154.46,344.99-344.99c0-93.07-36.89-177.53-96.81-239.58l-116.4,157.31c14.93,23.86,23.57,52.05,23.57,82.27,0,85.78-69.56,155.35-155.35,155.35s-155.34-69.57-155.34-155.35,69.55-155.34,155.34-155.34c30.32,0,58.61,8.7,82.52,23.72l157.26-116.38c-62.07-60.03-146.61-96.98-239.78-96.98"></path><polygon class="cls-2f" points="4821.46 57.53 4700.55 167.74 4716.74 110.89 4603.29 72.57 4878.98 0 4806.42 275.69 4768.1 162.24 4711.25 178.44 4821.46 57.53"></polygon><polygon class="cls-1f" points="4878.98 0 4806.41 275.69 4768.1 162.24 4711.25 178.44 4821.46 57.53 4878.98 0"></polygon></g></svg>
